<?xml version="1.0" standalone="no"?>
<!DOCTYPE svg PUBLIC "-//W3C//DTD SVG 20010904//EN"
 "http://www.w3.org/TR/2001/REC-SVG-20010904/DTD/svg10.dtd">
<svg version="1.0" xmlns="http://www.w3.org/2000/svg"
 width="300.000000pt" height="160.000000pt" viewBox="0 0 300.000000 160.000000"
 preserveAspectRatio="xMidYMid meet">
<metadata>
Created by potrace 1.10, written by Peter Selinger 2001-2011
</metadata>
<g transform="translate(0.000000,160.000000) scale(0.100000,-0.100000)"
fill="#000000" stroke="none">
<path d="M1273 1590 c-33 -13 -55 -64 -51 -118 l3 -47 -55 -27 c-30 -15 -63
-33 -72 -40 -14 -10 -20 -9 -35 4 -27 23 -57 30 -87 19 -38 -15 -36 -61 4 -95
l31 -25 -25 -48 c-49 -98 -59 -248 -21 -353 12 -35 13 -46 3 -49 -7 -2 -25
-17 -40 -32 -32 -32 -38 -88 -12 -110 24 -20 88 -15 120 8 l28 20 40 -29 c56
-40 136 -62 207 -55 57 5 158 44 190 73 14 13 18 13 29 -1 20 -24 65 -45 98
-45 31 0 72 32 72 56 0 29 -30 74 -60 89 -17 9 -30 17 -30 19 0 2 12 29 26 61
48 103 44 265 -9 370 -14 29 -16 40 -7 43 48 16 68 92 29 112 -23 13 -66 6
-89 -15 -13 -11 -27 -8 -93 23 -68 33 -77 40 -72 60 7 31 -11 95 -32 115 -24
21 -63 28 -90 17z m75 -49 c6 -8 12 -35 12 -61 0 -55 19 -85 60 -93 17 -4 47
-18 68 -32 42 -29 64 -31 82 -10 16 19 70 20 70 2 0 -8 -12 -24 -26 -38 -28
-27 -28 -44 2 -119 14 -34 19 -72 19 -155 0 -99 -3 -116 -27 -168 -15 -32 -25
-64 -22 -72 3 -8 21 -26 40 -40 27 -21 34 -33 32 -53 -4 -37 -43 -40 -91 -7
-47 31 -58 31 -105 1 -111 -73 -244 -70 -358 8 l-38 25 -33 -20 c-44 -27 -97
-23 -101 8 -2 16 8 33 34 57 l38 34 -19 81 c-24 107 -17 218 19 297 32 70 32
85 1 114 -14 13 -25 29 -25 37 0 18 36 16 70 -4 28 -16 30 -16 102 21 99 51
98 50 98 116 0 49 4 61 26 84 28 27 39 25 72 -13z"/>
<path d="M1214 1351 c-82 -50 -109 -128 -109 -311 0 -160 18 -218 91 -299 76
-85 156 -90 228 -17 59 59 78 118 84 258 4 99 1 127 -17 187 -23 76 -68 143
-120 178 -43 29 -113 31 -157 4z m142 -30 c96 -59 146 -211 125 -381 -20 -155
-75 -230 -170 -230 -39 0 -49 5 -91 48 -39 38 -52 61 -70 120 -19 64 -22 89
-17 190 6 138 24 198 73 242 42 36 101 41 150 11z"/>
<path d="M380 1454 c-205 -55 -369 -295 -345 -507 10 -93 7 -92 101 -30 l84
56 0 55 c0 113 62 270 126 319 73 55 158 51 212 -11 17 -19 33 -43 36 -54 11
-34 53 -34 82 1 29 35 64 100 64 120 0 15 -50 40 -115 57 -56 14 -180 11 -245
-6z m293 -47 l38 -17 -25 -42 c-33 -57 -54 -69 -68 -43 -20 36 -86 93 -123
105 -20 7 -51 9 -69 6 -48 -9 -117 -57 -149 -103 -39 -56 -78 -174 -86 -257
l-6 -69 -55 -38 c-61 -42 -70 -39 -70 27 -1 225 173 432 379 452 84 9 185 -1
234 -21z"/>
<path d="M2187 1080 l-46 -101 -101 51 c-56 28 -107 49 -113 47 -7 -3 38 -28
99 -57 l111 -52 -24 -50 c-21 -44 -27 -49 -48 -44 -28 7 -83 -13 -103 -37 -13
-15 -18 -14 -64 9 -27 14 -55 23 -61 21 -7 -3 14 -17 46 -32 51 -24 56 -29 51
-51 -9 -33 2 -67 30 -101 l25 -30 -24 -51 c-13 -29 -21 -52 -16 -52 4 0 18 23
31 50 18 39 29 51 44 49 48 -3 67 3 98 29 l31 29 47 -20 47 -20 -48 -101 c-52
-107 -55 -116 -39 -116 6 0 10 4 10 9 0 5 20 52 45 104 l44 96 96 -44 c87 -41
128 -55 112 -39 -3 3 -47 26 -99 50 -51 24 -93 47 -93 51 0 5 6 25 13 46 12
33 17 37 48 37 41 0 73 14 96 44 l17 21 55 -27 c31 -16 56 -24 56 -19 0 5 -24
19 -54 32 -49 22 -54 26 -49 50 5 27 -15 77 -40 97 -12 10 -11 19 10 63 13 27
23 55 21 61 -2 6 -15 -14 -29 -44 l-24 -56 -47 2 c-39 1 -52 -4 -74 -26 l-27
-26 -43 21 c-24 11 -44 24 -44 29 0 4 20 49 45 99 49 100 49 99 37 99 -5 0
-29 -45 -55 -100z m12 -139 c34 -18 37 -23 33 -51 -5 -37 14 -86 41 -105 20
-14 20 -15 2 -57 -11 -24 -20 -44 -21 -46 -1 -2 -22 7 -48 20 -43 20 -46 25
-46 60 0 27 -8 46 -29 70 l-29 33 24 47 c13 27 27 48 30 48 2 0 22 -9 43 -19z
m199 -7 c34 -23 31 -95 -4 -123 -57 -45 -134 -8 -134 63 0 63 83 99 138 60z
m-286 -103 c27 -24 33 -36 33 -71 0 -35 -6 -47 -34 -72 -29 -26 -39 -30 -75
-25 -53 7 -86 44 -86 95 0 91 94 134 162 73z"/>
<path d="M412 1023 c3 -24 9 -28 61 -38 85 -17 88 -21 69 -138 -17 -110 -23
-117 -95 -119 -55 -1 -84 8 -125 39 -36 27 -82 109 -82 148 0 14 -2 25 -4 25
-2 0 -33 -20 -70 -45 -37 -24 -74 -48 -83 -53 -14 -9 -15 -14 -3 -42 18 -43
97 -123 147 -149 94 -47 230 -45 312 7 25 16 74 46 107 68 l62 39 11 87 c14
105 17 115 42 123 27 9 49 33 49 56 0 18 -9 19 -201 19 l-200 0 3 -27z m358
-3 c12 -8 11 -10 -7 -10 -13 0 -23 -6 -23 -15 0 -7 -7 -18 -15 -22 -9 -5 -18
-41 -26 -101 -7 -50 -16 -92 -20 -92 -4 0 -14 -6 -21 -13 -22 -22 -106 -77
-117 -77 -6 0 -11 -4 -11 -8 0 -13 -66 -30 -132 -36 -71 -6 -145 13 -196 50
-40 29 -97 97 -97 117 0 14 84 77 102 77 7 0 22 -21 33 -47 23 -52 76 -113 98
-113 7 0 11 -4 8 -8 -5 -9 46 -16 111 -16 53 1 93 26 93 59 0 14 4 25 10 25 5
0 7 6 4 13 -3 8 0 43 5 78 13 77 2 99 -58 119 -23 7 -44 17 -47 21 -7 11 289
10 306 -1z"/>
<path d="M125 342 c-47 -29 -55 -44 -76 -149 -31 -152 -14 -183 99 -183 74 0
115 18 137 60 25 49 20 60 -28 60 -34 0 -44 -4 -52 -22 -12 -28 -69 -38 -78
-14 -11 28 19 169 39 183 24 17 49 17 64 -2 12 -14 11 -30 -4 -65 -5 -13 2
-15 40 -12 37 3 47 8 55 29 16 43 10 73 -20 104 -26 25 -37 29 -88 29 -39 0
-68 -6 -88 -18z m139 -22 c22 -8 26 -16 26 -50 0 -51 -10 -51 -32 0 -27 65
-93 65 -131 0 -10 -16 -20 -62 -24 -104 -5 -65 -3 -79 12 -96 26 -29 73 -26
107 7 29 27 43 28 32 0 -6 -17 -72 -47 -103 -47 -10 0 -33 5 -51 11 l-33 12 6
87 c7 109 25 156 69 175 39 17 87 19 122 5z"/>
<path d="M445 346 c-43 -19 -64 -55 -81 -142 -21 -110 -19 -140 12 -171 23
-23 31 -25 101 -21 70 3 77 6 103 35 35 39 48 84 57 185 6 73 5 77 -20 102
-22 22 -35 26 -84 26 -32 -1 -72 -7 -88 -14z m139 -26 c22 -8 26 -16 26 -51 0
-86 -21 -172 -49 -200 -35 -35 -96 -45 -145 -25 -34 14 -36 18 -36 58 1 66 24
165 46 189 10 12 28 25 39 30 28 11 89 11 119 -1z"/>
<path d="M471 304 c-30 -22 -48 -66 -57 -142 -8 -79 9 -112 60 -112 62 0 91
43 102 155 6 60 5 68 -16 90 -27 29 -56 32 -89 9z m78 -32 c11 -21 -12 -156
-30 -178 -16 -20 -68 -18 -76 2 -10 27 14 154 33 175 22 24 60 25 73 1z"/>
<path d="M696 208 c-15 -84 -30 -163 -33 -175 -5 -21 -2 -23 40 -23 l45 0 12
72 c22 137 24 141 39 70 13 -61 14 -62 47 -62 29 0 37 6 70 60 20 33 38 59 40
58 1 -2 -4 -30 -11 -63 -7 -33 -16 -77 -19 -97 l-7 -38 44 0 44 0 27 158 c15
86 30 165 32 175 5 14 -2 17 -43 17 l-48 0 -55 -85 -54 -86 -26 86 -25 85 -46
0 -46 0 -27 -152z m123 42 c35 -100 49 -100 119 3 35 51 60 77 73 77 23 0 23
4 -4 -154 -28 -158 -50 -184 -40 -47 6 88 5 91 -15 91 -15 0 -32 -16 -54 -50
-18 -28 -39 -49 -47 -48 -8 2 -20 21 -28 43 -7 22 -20 46 -27 54 -21 20 -43
-21 -59 -104 -6 -38 -18 -70 -24 -73 -17 -5 -16 12 8 147 26 146 25 143 50
139 17 -2 27 -19 48 -78z"/>
<path d="M1135 348 c-5 -18 -55 -313 -55 -327 0 -6 18 -11 43 -11 l43 0 12 78
c7 42 12 88 12 100 0 13 4 20 10 17 6 -3 10 -14 10 -23 0 -9 5 -34 11 -54 9
-34 13 -38 43 -38 29 0 36 6 69 62 42 71 43 67 18 -55 l-19 -88 46 3 46 3 27
155 c37 205 38 190 -15 190 -43 0 -44 0 -96 -80 -51 -77 -70 -95 -70 -66 0 8
-9 44 -20 80 l-21 66 -45 0 c-27 0 -46 -5 -49 -12z m91 -75 c19 -68 39 -103
59 -103 7 0 38 35 67 77 58 85 88 104 88 56 0 -45 -39 -246 -50 -257 -17 -17
-19 -3 -7 76 9 62 8 80 -3 93 -12 14 -15 14 -37 -7 -13 -12 -33 -37 -44 -55
-27 -43 -43 -42 -59 7 -7 22 -21 47 -30 55 -25 23 -37 3 -57 -94 -10 -53 -20
-81 -29 -81 -8 0 -14 1 -14 3 0 1 11 63 25 137 14 74 25 138 25 143 0 4 11 7
25 7 21 0 27 -7 41 -57z"/>
<path d="M1550 357 c0 -2 -9 -52 -20 -112 -28 -151 -27 -188 6 -214 21 -16 41
-21 88 -21 114 0 140 31 172 202 13 68 23 129 24 136 0 8 -15 12 -43 12 l-43
0 -21 -126 c-12 -69 -27 -132 -34 -140 -16 -19 -66 -18 -77 2 -8 14 11 155 33
242 5 20 2 22 -40 22 -25 0 -45 -1 -45 -3z m45 -74 c-4 -27 -11 -64 -16 -83
-22 -88 -1 -150 51 -150 66 0 83 26 109 171 19 101 25 118 38 105 11 -11 -25
-206 -45 -240 -22 -38 -73 -58 -127 -50 -52 7 -65 19 -65 63 0 70 33 231 47
231 11 0 13 -11 8 -47z"/>
<path d="M1885 348 c-4 -15 -55 -319 -55 -330 0 -5 20 -8 44 -8 l43 0 14 95
c7 52 15 92 18 89 3 -3 17 -44 31 -92 l25 -87 46 -3 45 -3 28 163 c16 90 31
169 33 176 4 8 -8 12 -41 12 -25 0 -46 -1 -46 -2 0 -2 -7 -41 -15 -88 -8 -47
-15 -87 -15 -90 -1 -3 -14 37 -31 88 l-30 92 -45 0 c-27 0 -46 -5 -49 -12z
m94 -81 c47 -141 85 -135 107 16 4 30 11 47 20 47 18 0 18 5 -6 -131 -29 -165
-28 -161 -52 -157 -16 2 -27 21 -48 81 -15 43 -33 84 -40 90 -18 18 -46 -23
-55 -80 -10 -72 -16 -93 -27 -93 -13 0 -7 66 17 198 16 84 19 92 40 92 20 0
27 -10 44 -63z"/>
<path d="M2220 338 c0 -13 -13 -92 -29 -176 l-28 -153 46 3 45 3 28 160 c15
88 27 166 28 173 0 8 -15 12 -45 12 -40 0 -45 -3 -45 -22z m50 -35 c0 -46 -39
-246 -50 -257 -21 -21 -20 7 5 139 14 76 25 140 25 142 0 1 5 3 10 3 6 0 10
-12 10 -27z"/>
<path d="M2350 343 c0 -10 -3 -29 -7 -42 -6 -23 -5 -24 56 -19 l62 4 -5 -25
c-3 -14 -13 -69 -21 -121 -9 -52 -18 -103 -21 -112 -5 -15 1 -18 40 -18 51 0
43 -20 75 169 l17 105 62 -3 c60 -2 62 -2 62 22 0 14 3 32 6 41 5 14 -13 16
-160 16 -151 0 -166 -2 -166 -17z m248 -20 c-61 -5 -84 -32 -93 -111 -10 -88
-30 -165 -43 -170 -15 -5 -15 5 3 108 18 104 19 146 3 157 -7 4 -31 10 -53 14
-22 4 20 6 95 6 74 0 114 -2 88 -4z"/>
<path d="M2690 355 c0 -3 16 -52 35 -108 36 -103 36 -103 22 -170 l-14 -67 48
0 47 0 7 64 c6 59 12 73 81 170 41 58 74 108 74 111 0 3 -18 5 -40 5 -37 0
-42 -4 -80 -60 -22 -33 -44 -60 -49 -60 -4 0 -15 27 -24 60 l-17 60 -45 0
c-25 0 -45 -2 -45 -5z m75 -42 c4 -10 9 -29 11 -43 6 -33 38 -64 58 -57 8 3
32 31 52 62 20 30 39 53 42 50 3 -3 -20 -42 -52 -88 -35 -52 -59 -97 -63 -122
-14 -92 -43 -101 -36 -12 4 51 1 76 -21 136 -14 40 -26 76 -26 82 0 16 28 10
35 -8z"/>
</g>
</svg>
