<?xml version="1.0" standalone="no"?>
<!DOCTYPE svg PUBLIC "-//W3C//DTD SVG 20010904//EN"
 "http://www.w3.org/TR/2001/REC-SVG-20010904/DTD/svg10.dtd">
<svg version="1.0" xmlns="http://www.w3.org/2000/svg"
 width="300.000000pt" height="160.000000pt" viewBox="0 0 300.000000 160.000000"
 preserveAspectRatio="xMidYMid meet">
<metadata>
Created by potrace 1.10, written by Peter Selinger 2001-2011
</metadata>
<g transform="translate(0.000000,160.000000) scale(0.100000,-0.100000)"
fill="#000000" stroke="none">
<path d="M1267 1589 c-27 -16 -47 -64 -47 -116 0 -49 0 -49 -52 -76 -29 -15
-61 -32 -70 -39 -14 -10 -20 -9 -35 4 -27 23 -57 30 -87 19 -38 -15 -36 -61 4
-94 l30 -26 -24 -48 c-49 -98 -58 -249 -21 -353 12 -35 13 -46 3 -49 -7 -2
-25 -17 -40 -32 -32 -32 -38 -88 -12 -110 24 -19 91 -15 122 8 l27 20 39 -29
c46 -33 123 -58 181 -58 54 0 138 25 186 56 21 13 41 24 43 24 3 0 22 -11 43
-25 49 -34 98 -31 126 7 20 27 20 29 4 62 -9 20 -30 42 -47 51 -16 8 -30 17
-30 19 0 2 12 29 26 61 47 102 44 265 -7 366 l-18 36 30 25 c39 35 41 84 3 99
-29 11 -60 4 -86 -18 -14 -13 -21 -12 -55 10 -21 13 -55 30 -76 37 -34 11 -38
15 -33 36 21 84 -62 171 -127 133z m89 -268 c96 -59 146 -212 124 -384 -20
-159 -77 -232 -175 -224 -44 4 -54 10 -92 52 -66 72 -87 153 -80 303 6 138 19
183 68 234 31 33 42 38 80 38 26 0 57 -8 75 -19z"/>
<path d="M380 1454 c-207 -55 -368 -294 -345 -511 4 -35 11 -65 16 -69 6 -3
46 18 90 46 l79 53 0 54 c0 113 61 269 124 316 46 35 94 48 139 38 45 -11 70
-31 103 -83 33 -52 64 -51 103 2 43 59 56 97 41 115 -39 47 -237 69 -350 39z"/>
<path d="M2188 1079 l-47 -100 -30 16 c-72 36 -181 83 -181 77 0 -4 43 -27 96
-51 53 -25 98 -50 101 -57 2 -7 -5 -30 -17 -53 -19 -39 -23 -41 -65 -41 -32 0
-51 -6 -71 -24 l-28 -23 -54 24 c-30 13 -57 22 -59 19 -3 -3 20 -17 52 -30 53
-24 56 -27 50 -54 -7 -33 8 -78 36 -108 l20 -22 -25 -51 c-15 -28 -23 -51 -18
-51 5 0 19 23 32 50 23 49 25 50 66 50 34 0 51 7 78 31 l35 30 40 -21 c23 -11
41 -24 41 -29 0 -5 -20 -53 -45 -107 -25 -53 -43 -99 -41 -102 3 -2 28 43 55
102 l50 106 38 -16 c21 -9 64 -30 97 -46 32 -16 61 -27 64 -24 3 3 -38 26 -91
51 -54 25 -97 49 -97 55 0 5 8 25 17 45 14 30 22 35 51 35 40 0 71 14 94 44
l17 21 46 -23 c67 -32 80 -26 15 7 -49 26 -55 32 -52 58 2 18 -6 42 -22 66
-31 46 -31 47 -5 98 11 23 18 44 15 47 -4 3 -16 -17 -28 -45 l-21 -51 -48 2
c-40 1 -53 -4 -75 -26 l-27 -26 -43 21 c-24 11 -44 24 -44 28 0 3 18 46 40 94
23 48 40 91 38 96 -2 5 -24 -36 -50 -92z m11 -138 c34 -18 37 -23 33 -51 -5
-37 14 -86 41 -105 19 -13 19 -15 2 -59 -10 -25 -19 -46 -20 -46 -1 0 -23 9
-49 20 -43 20 -46 23 -46 60 0 29 -7 48 -29 72 l-28 32 21 48 c12 26 25 48 29
48 4 0 25 -9 46 -19z m-87 -110 c27 -24 33 -36 33 -71 0 -35 -6 -47 -33 -71
-44 -40 -93 -40 -133 0 -62 62 -20 171 65 171 25 0 45 -9 68 -29z"/>
<path d="M410 1026 c0 -19 7 -26 33 -31 67 -14 106 -28 111 -41 7 -18 -22
-195 -35 -210 -16 -19 -82 -27 -128 -14 -62 16 -117 71 -142 141 l-22 59 -36
-22 c-20 -12 -55 -35 -78 -50 l-43 -29 19 -37 c27 -53 84 -108 144 -140 47
-24 62 -27 152 -27 l101 0 109 72 110 71 12 94 c10 73 17 97 34 111 12 9 27
17 35 17 9 0 14 11 14 30 l0 30 -195 0 -195 0 0 -24z"/>
<path d="M125 342 c-16 -11 -36 -26 -43 -35 -19 -22 -54 -204 -47 -239 10 -42
46 -61 114 -61 69 1 115 22 136 63 25 48 20 60 -24 60 -30 0 -42 -5 -55 -25
-18 -27 -57 -33 -75 -12 -16 20 11 167 35 184 41 30 81 0 68 -52 -6 -24 -4
-25 35 -25 35 0 43 4 51 26 17 44 11 74 -19 105 -26 25 -37 29 -88 29 -39 0
-68 -6 -88 -18z"/>
<path d="M445 346 c-42 -18 -63 -53 -80 -136 -20 -94 -19 -143 3 -169 40 -51
170 -45 216 10 31 37 45 83 53 181 6 73 5 77 -20 102 -22 22 -35 26 -84 26
-32 -1 -72 -7 -88 -14z m94 -65 c11 -7 12 -24 7 -77 -9 -92 -23 -118 -64 -122
-42 -4 -48 12 -34 102 14 88 48 124 91 97z"/>
<path d="M720 353 c0 -8 -49 -290 -55 -320 -5 -21 -2 -23 39 -23 l44 0 18 98
18 97 16 -55 c14 -50 18 -55 48 -58 28 -3 34 2 63 48 17 28 33 49 35 47 2 -2
-3 -41 -11 -88 -8 -46 -15 -85 -15 -86 0 -2 20 -3 45 -3 25 0 45 3 45 8 0 10
48 290 55 320 5 20 2 22 -42 22 l-48 0 -54 -83 -55 -82 -25 82 -26 83 -47 0
c-27 0 -48 -3 -48 -7z"/>
<path d="M1135 338 c-9 -38 -55 -302 -55 -316 0 -9 13 -12 42 -10 l42 3 16 90
c16 94 21 97 39 28 11 -39 14 -43 44 -43 29 0 37 6 62 50 17 27 33 50 36 50 3
0 0 -30 -7 -67 -22 -112 -21 -115 28 -111 l42 3 27 155 c37 205 38 190 -15
190 -43 0 -44 0 -96 -80 -29 -45 -56 -77 -60 -73 -4 4 -17 41 -29 81 l-22 72
-44 0 c-38 0 -45 -3 -50 -22z"/>
<path d="M1542 313 c-20 -97 -34 -199 -30 -232 4 -49 42 -74 110 -74 114 0
145 39 176 215 12 68 22 127 22 131 0 4 -19 7 -43 7 l-42 0 -23 -127 c-24
-136 -35 -156 -82 -151 -34 4 -36 42 -12 176 l19 102 -43 0 -42 0 -10 -47z"/>
<path d="M1886 343 c-6 -21 -56 -309 -56 -324 0 -6 18 -9 43 -7 l42 3 16 90
c17 97 18 97 52 -15 l23 -75 47 -3 c33 -2 47 1 47 10 0 7 13 86 29 176 l28
162 -43 0 -43 0 -11 -57 c-23 -125 -22 -125 -53 -29 l-28 86 -44 0 c-33 0 -45
-4 -49 -17z"/>
<path d="M2225 348 c-6 -20 -55 -302 -55 -321 0 -13 9 -17 40 -17 33 0 41 4
45 23 9 36 55 301 55 315 0 7 -15 12 -40 12 -24 0 -42 -5 -45 -12z"/>
<path d="M2350 343 c0 -10 -3 -28 -6 -40 -6 -22 -4 -23 55 -23 58 0 61 -1 57
-22 -3 -13 -12 -63 -21 -113 -8 -50 -18 -100 -20 -112 -5 -21 -2 -23 39 -23
43 0 45 2 51 33 3 17 14 77 23 132 l18 100 59 5 c53 4 60 8 66 30 14 52 20 50
-156 50 -150 0 -165 -2 -165 -17z"/>
<path d="M2690 353 c0 -5 16 -52 35 -107 33 -92 35 -102 25 -154 -15 -84 -16
-84 32 -80 l42 3 12 67 c11 58 23 81 83 167 39 55 71 102 71 105 0 3 -18 6
-40 6 -37 0 -42 -4 -80 -60 -22 -33 -44 -60 -49 -60 -4 0 -15 27 -24 60 l-17
60 -45 0 c-25 0 -45 -3 -45 -7z"/>
</g>
</svg>
